<svg xmlns="http://www.w3.org/2000/svg" width="522" height="577" viewBox="0 0 522 577" fill="none"><path d="M406.91 42.0384L406.91 534.209C406.91 555.901 388.584 573.654 365.766 573.654H164.408C141.59 573.654 123.264 555.901 123.264 534.209L123.264 42.0384C123.264 20.3464 141.59 2.59375 164.408 2.59375L365.766 2.59375C388.584 2.59375 406.91 20.3464 406.91 42.0384Z" fill="white" stroke="#404EED" stroke-width="5"></path><path style="mix-blend-mode:multiply" d="M164.414 576.159C152.842 576.147 141.747 571.723 133.565 563.859C125.382 555.994 120.781 545.331 120.77 534.209L365.766 0.09375C377.338 0.107071 388.433 4.53104 396.616 12.3952C404.799 20.2594 409.402 30.9218 409.416 42.0434V534.209C409.403 545.331 404.801 555.995 396.617 563.859C388.434 571.724 377.339 576.147 365.766 576.159H164.414Z" fill="#EDEDED"></path><path d="M457.439 165.305C460.228 165.305 462.488 163.046 462.488 160.261C462.488 157.475 460.228 155.217 457.439 155.217C454.651 155.217 452.391 157.475 452.391 160.261C452.391 163.046 454.651 165.305 457.439 165.305Z" fill="#EAEEFF"></path><path d="M177.123 221.797C176.22 221.797 175.354 221.439 174.716 220.801C174.077 220.163 173.719 219.298 173.719 218.396V201.068C173.719 174.342 185.907 149.525 207.172 132.97C213.728 127.855 220.988 123.711 228.728 120.666C243.669 114.815 259.95 113.256 275.731 116.164C291.512 119.073 306.165 126.333 318.032 137.125C318.364 137.425 318.634 137.788 318.825 138.193C319.016 138.597 319.126 139.035 319.148 139.482C319.17 139.929 319.104 140.376 318.953 140.797C318.802 141.219 318.569 141.606 318.268 141.938C317.967 142.269 317.604 142.538 317.199 142.73C316.794 142.921 316.356 143.031 315.908 143.052C315.461 143.074 315.014 143.008 314.592 142.857C314.171 142.706 313.783 142.474 313.451 142.173C299.628 129.593 281.794 122.306 263.109 121.605C244.423 120.905 226.093 126.834 211.365 138.344C191.773 153.598 180.538 176.46 180.538 201.068V218.391C180.538 218.839 180.451 219.283 180.279 219.696C180.108 220.11 179.856 220.486 179.539 220.803C179.222 221.119 178.845 221.37 178.43 221.541C178.016 221.711 177.572 221.799 177.123 221.797Z" fill="#404EED"></path><path d="M220.646 359.142C220.074 359.144 219.512 359 219.012 358.724C205.331 351.315 193.904 340.358 185.932 327.007C177.961 313.655 173.74 298.403 173.715 282.857C173.715 281.954 174.074 281.089 174.712 280.451C175.351 279.813 176.217 279.455 177.12 279.455C178.022 279.455 178.889 279.813 179.527 280.451C180.166 281.089 180.524 281.954 180.524 282.857C180.551 297.179 184.442 311.229 191.789 323.528C199.136 335.827 209.666 345.919 222.27 352.743C222.941 353.102 223.472 353.675 223.779 354.371C224.085 355.067 224.149 355.845 223.961 356.582C223.773 357.318 223.343 357.971 222.741 358.435C222.138 358.899 221.397 359.148 220.636 359.142H220.646Z" fill="#404EED"></path><path d="M260.125 369.186V362.383C273.325 362.373 286.314 359.08 297.922 352.803C309.53 346.525 319.392 337.46 326.618 326.425C326.865 326.051 327.182 325.73 327.553 325.479C327.924 325.228 328.341 325.052 328.78 324.962C329.218 324.872 329.671 324.869 330.111 324.954C330.55 325.039 330.969 325.209 331.343 325.455C331.717 325.702 332.039 326.019 332.29 326.39C332.541 326.76 332.717 327.176 332.807 327.615C332.897 328.053 332.9 328.505 332.815 328.944C332.731 329.384 332.56 329.802 332.313 330.176C324.466 342.152 313.758 351.989 301.156 358.799C288.554 365.61 274.453 369.179 260.125 369.186Z" fill="#404EED"></path><path d="M245.668 368.304C245.465 368.305 245.261 368.287 245.06 368.25C240.767 367.481 236.54 366.385 232.415 364.97C231.559 364.677 230.854 364.056 230.457 363.244C230.059 362.432 230 361.496 230.294 360.641C230.587 359.786 231.209 359.082 232.021 358.685C232.834 358.287 233.772 358.229 234.627 358.522C238.42 359.823 242.306 360.834 246.252 361.545C247.102 361.681 247.869 362.135 248.397 362.813C248.926 363.492 249.178 364.346 249.102 365.202C249.026 366.059 248.629 366.855 247.989 367.431C247.349 368.006 246.514 368.318 245.654 368.304H245.668Z" fill="#404EED"></path><path d="M336.705 319.038C336.245 319.038 335.79 318.944 335.368 318.761C334.956 318.585 334.582 318.33 334.269 318.011C333.955 317.691 333.708 317.313 333.542 316.897C333.375 316.482 333.292 316.038 333.297 315.591C333.302 315.143 333.396 314.701 333.573 314.29C335.861 308.945 337.547 303.364 338.602 297.647C338.766 296.758 339.277 295.972 340.023 295.459C340.768 294.947 341.686 294.752 342.576 294.916C343.465 295.081 344.253 295.591 344.765 296.336C345.278 297.08 345.474 297.998 345.309 298.886C344.162 305.096 342.33 311.16 339.847 316.968C339.585 317.583 339.147 318.108 338.588 318.476C338.03 318.844 337.375 319.039 336.705 319.038Z" fill="#404EED"></path><path d="M341.512 188.122C340.723 188.122 339.958 187.848 339.349 187.347C338.739 186.846 338.323 186.15 338.171 185.376C335.842 173.847 330.99 162.975 323.964 153.538C323.696 153.179 323.502 152.772 323.393 152.338C323.283 151.905 323.26 151.454 323.325 151.011C323.39 150.569 323.541 150.144 323.77 149.76C324 149.376 324.303 149.041 324.662 148.774C325.021 148.507 325.429 148.313 325.863 148.203C326.297 148.094 326.748 148.071 327.191 148.135C327.634 148.2 328.059 148.352 328.444 148.581C328.828 148.81 329.163 149.112 329.431 149.471C337.065 159.717 342.335 171.524 344.863 184.045C344.952 184.484 344.953 184.936 344.866 185.375C344.779 185.815 344.606 186.233 344.357 186.605C344.108 186.978 343.788 187.297 343.415 187.546C343.042 187.794 342.623 187.967 342.184 188.053C341.963 188.098 341.738 188.121 341.512 188.122Z" fill="#404EED"></path><path d="M343.12 286.262C342.217 286.262 341.351 285.904 340.712 285.266C340.074 284.628 339.715 283.763 339.715 282.861V201.069C339.715 200.167 340.074 199.302 340.712 198.664C341.351 198.026 342.217 197.668 343.12 197.668C344.022 197.668 344.888 198.026 345.527 198.664C346.165 199.302 346.524 200.167 346.524 201.069V282.856C346.525 283.303 346.437 283.746 346.266 284.159C346.096 284.572 345.845 284.948 345.529 285.264C345.212 285.58 344.837 285.831 344.424 286.003C344.01 286.174 343.567 286.262 343.12 286.262Z" fill="#404EED"></path><path d="M201.727 308.613C201.037 308.614 200.363 308.406 199.794 308.015C199.225 307.625 198.788 307.071 198.542 306.427C195.642 298.905 194.158 290.914 194.164 282.854V201.068C194.159 194.765 195.062 188.494 196.844 182.447C197.102 181.581 197.694 180.852 198.49 180.421C199.286 179.991 200.22 179.893 201.088 180.151C201.955 180.409 202.685 181 203.116 181.796C203.547 182.591 203.644 183.524 203.386 184.391C201.788 189.811 200.979 195.432 200.983 201.083V282.869C200.968 290.092 202.287 297.256 204.874 304.002C205.036 304.418 205.114 304.863 205.104 305.31C205.094 305.757 204.995 306.197 204.815 306.606C204.634 307.015 204.374 307.384 204.051 307.693C203.727 308.001 203.346 308.243 202.929 308.404C202.544 308.544 202.137 308.614 201.727 308.613Z" fill="#404EED"></path><path d="M260.119 348.738C250.945 348.723 241.874 346.8 233.484 343.092C225.095 339.383 217.57 333.97 211.389 327.197C211.087 326.866 210.854 326.479 210.702 326.058C210.55 325.637 210.483 325.19 210.504 324.743C210.525 324.296 210.634 323.858 210.824 323.453C211.015 323.048 211.284 322.685 211.615 322.384C211.946 322.083 212.333 321.849 212.754 321.698C213.176 321.546 213.623 321.479 214.07 321.5C214.518 321.521 214.957 321.63 215.362 321.82C215.767 322.01 216.131 322.279 216.432 322.61C224.152 331.093 234.178 337.146 245.285 340.029C256.392 342.912 268.099 342.5 278.976 338.844C279.833 338.555 280.77 338.618 281.581 339.019C282.392 339.42 283.01 340.126 283.3 340.983C283.589 341.839 283.526 342.775 283.125 343.585C282.724 344.395 282.017 345.013 281.16 345.302C274.38 347.586 267.273 348.746 260.119 348.738Z" fill="#404EED"></path><path d="M303.697 331.038C303.021 331.037 302.361 330.835 301.8 330.458C301.239 330.081 300.804 329.545 300.548 328.92C300.293 328.294 300.231 327.607 300.368 326.946C300.505 326.285 300.836 325.679 301.319 325.207C307.015 319.722 311.541 313.143 314.626 305.865C317.71 298.587 319.288 290.761 319.266 282.858V249.499C319.266 248.597 319.625 247.732 320.263 247.094C320.902 246.456 321.768 246.098 322.671 246.098C323.574 246.098 324.44 246.456 325.078 247.094C325.717 247.732 326.075 248.597 326.075 249.499V282.853C326.1 291.668 324.34 300.397 320.9 308.515C317.461 316.633 312.413 323.972 306.061 330.09C305.425 330.7 304.578 331.039 303.697 331.038Z" fill="#404EED"></path><path d="M322.665 223.516C321.762 223.516 320.896 223.157 320.258 222.52C319.619 221.882 319.26 221.016 319.26 220.114V201.071C319.26 191.367 316.867 181.813 312.293 173.253C307.719 164.692 301.104 157.39 293.034 151.991C284.963 146.591 275.686 143.261 266.021 142.296C256.356 141.33 246.602 142.758 237.621 146.453C236.783 146.798 235.842 146.797 235.004 146.448C234.167 146.1 233.502 145.434 233.157 144.596C232.811 143.759 232.812 142.818 233.161 141.982C233.509 141.145 234.176 140.481 235.014 140.136C242.977 136.859 251.51 135.186 260.121 135.213C296.483 135.213 326.07 164.767 326.07 201.095V220.134C326.065 221.033 325.703 221.893 325.066 222.526C324.428 223.16 323.565 223.516 322.665 223.516Z" fill="#404EED"></path><path d="M218.053 204.48C217.15 204.48 216.284 204.122 215.646 203.484C215.007 202.846 214.648 201.981 214.648 201.079C214.661 189.033 219.457 177.484 227.983 168.966C236.508 160.448 248.068 155.657 260.125 155.645C271.964 155.633 283.338 160.252 291.813 168.512C292.461 169.141 292.833 170.003 292.847 170.906C292.86 171.81 292.513 172.682 291.883 173.33C291.253 173.978 290.391 174.35 289.487 174.363C288.582 174.376 287.709 174.03 287.061 173.4C283.851 170.278 280.124 167.736 276.044 165.888C271.046 163.616 265.616 162.446 260.125 162.457C249.877 162.47 240.052 166.543 232.806 173.784C225.56 181.024 221.484 190.84 221.472 201.079C221.472 201.527 221.384 201.97 221.212 202.384C221.04 202.797 220.788 203.173 220.47 203.489C220.152 203.805 219.775 204.055 219.36 204.225C218.946 204.396 218.501 204.482 218.053 204.48Z" fill="#404EED"></path><path d="M229.838 315.407C229.384 315.404 228.934 315.31 228.517 315.13C228.099 314.951 227.721 314.69 227.406 314.362C219.219 305.915 214.65 294.613 214.668 282.854V227.196C214.668 226.294 215.027 225.429 215.665 224.791C216.304 224.153 217.17 223.795 218.073 223.795C218.976 223.795 219.842 224.153 220.48 224.791C221.119 225.429 221.477 226.294 221.477 227.196V282.854C221.455 292.855 225.336 302.47 232.295 309.658C232.762 310.139 233.077 310.746 233.2 311.405C233.324 312.063 233.249 312.744 232.987 313.36C232.724 313.977 232.286 314.502 231.726 314.871C231.165 315.239 230.509 315.434 229.838 315.431V315.407Z" fill="#404EED"></path><path d="M260.124 328.296C255.267 328.298 250.44 327.521 245.83 325.992C244.971 325.708 244.261 325.095 243.855 324.287C243.449 323.48 243.381 322.545 243.665 321.687C243.95 320.829 244.564 320.12 245.372 319.714C246.18 319.309 247.116 319.24 247.975 319.525C253.784 321.444 259.966 321.958 266.013 321.026C272.06 320.093 277.799 317.741 282.759 314.162C287.719 310.582 291.758 305.879 294.544 300.436C297.33 294.994 298.784 288.969 298.787 282.857C298.787 281.954 299.145 281.089 299.784 280.451C300.422 279.813 301.288 279.455 302.191 279.455C303.094 279.455 303.96 279.813 304.599 280.451C305.237 281.089 305.596 281.954 305.596 282.857C305.582 294.902 300.787 306.45 292.263 314.968C283.738 323.486 272.181 328.279 260.124 328.296Z" fill="#404EED"></path><path d="M302.194 265.251C301.291 265.251 300.425 264.892 299.786 264.254C299.148 263.616 298.789 262.751 298.789 261.849V201.069C298.789 200.167 299.148 199.302 299.786 198.664C300.425 198.026 301.291 197.668 302.194 197.668C303.097 197.668 303.963 198.026 304.601 198.664C305.24 199.302 305.598 200.167 305.598 201.069V261.844C305.599 262.291 305.511 262.734 305.34 263.147C305.17 263.561 304.919 263.936 304.603 264.253C304.287 264.569 303.911 264.82 303.498 264.991C303.084 265.162 302.641 265.251 302.194 265.251Z" fill="#404EED"></path><path d="M238.522 273.215C237.619 273.215 236.753 272.856 236.114 272.218C235.476 271.58 235.117 270.715 235.117 269.813V201.069C235.136 196.358 236.478 191.748 238.992 187.762C241.505 183.777 245.089 180.577 249.334 178.527C250.15 178.136 251.088 178.084 251.942 178.384C252.795 178.684 253.495 179.31 253.887 180.126C254.278 180.941 254.329 181.878 254.029 182.731C253.729 183.584 253.102 184.283 252.286 184.674C249.195 186.162 246.584 188.488 244.752 191.387C242.921 194.286 241.941 197.641 241.927 201.069V269.813C241.927 270.715 241.568 271.58 240.929 272.218C240.291 272.856 239.425 273.215 238.522 273.215Z" fill="#404EED"></path><path d="M260.123 307.848C253.491 307.84 247.134 305.204 242.445 300.519C237.756 295.834 235.12 289.482 235.113 282.857C235.113 281.954 235.472 281.089 236.11 280.451C236.749 279.813 237.615 279.455 238.518 279.455C239.421 279.455 240.287 279.813 240.925 280.451C241.564 281.089 241.923 281.954 241.923 282.857C241.926 287.674 243.843 292.294 247.253 295.701C250.662 299.109 255.286 301.025 260.108 301.03C262.822 301.039 265.503 300.433 267.949 299.257C268.765 298.866 269.702 298.815 270.556 299.116C271.409 299.416 272.108 300.043 272.499 300.858C272.89 301.673 272.94 302.61 272.64 303.462C272.339 304.315 271.712 305.013 270.896 305.404C267.535 307.019 263.853 307.855 260.123 307.848Z" fill="#404EED"></path><path d="M279.67 295.455C279.095 295.456 278.529 295.312 278.025 295.036C277.521 294.76 277.095 294.36 276.787 293.875C276.479 293.39 276.299 292.835 276.264 292.261C276.229 291.688 276.34 291.115 276.586 290.596C277.732 288.178 278.324 285.535 278.318 282.86V235.997C278.318 235.095 278.676 234.23 279.315 233.592C279.953 232.954 280.819 232.596 281.722 232.596C282.625 232.596 283.491 232.954 284.13 233.592C284.768 234.23 285.127 235.095 285.127 235.997V282.855C285.136 286.538 284.32 290.175 282.739 293.502C282.465 294.084 282.031 294.577 281.488 294.922C280.944 295.268 280.314 295.453 279.67 295.455Z" fill="#404EED"></path><path d="M281.726 217.54C280.823 217.54 279.957 217.181 279.318 216.543C278.68 215.905 278.321 215.04 278.321 214.138V201.067C278.322 197.473 277.255 193.961 275.256 190.974C273.257 187.987 270.415 185.66 267.091 184.288C266.252 183.94 265.586 183.273 265.24 182.435C264.893 181.596 264.894 180.655 265.242 179.817C265.591 178.979 266.258 178.314 267.097 177.968C267.936 177.622 268.879 177.623 269.717 177.971C274.286 179.861 278.19 183.063 280.936 187.172C283.682 191.281 285.145 196.112 285.14 201.052V214.119C285.143 214.568 285.056 215.013 284.886 215.429C284.715 215.844 284.464 216.222 284.147 216.54C283.829 216.858 283.452 217.11 283.036 217.282C282.621 217.453 282.175 217.541 281.726 217.54Z" fill="#404EED"></path><path d="M260.405 237.703C259.502 237.703 258.636 237.344 257.997 236.706C257.359 236.068 257 235.203 257 234.301V208.741C257 207.839 257.359 206.974 257.997 206.336C258.636 205.698 259.502 205.34 260.405 205.34C261.308 205.34 262.174 205.698 262.812 206.336C263.451 206.974 263.809 207.839 263.809 208.741V234.301C263.809 235.203 263.451 236.068 262.812 236.706C262.174 237.344 261.308 237.703 260.405 237.703Z" fill="#404EED"></path><path d="M260.405 280.017C259.502 280.017 258.636 279.659 257.997 279.021C257.359 278.383 257 277.518 257 276.616V252.757C257 251.855 257.359 250.99 257.997 250.352C258.636 249.714 259.502 249.355 260.405 249.355C261.308 249.355 262.174 249.714 262.812 250.352C263.451 250.99 263.809 251.855 263.809 252.757V276.616C263.809 277.518 263.451 278.383 262.812 279.021C262.174 279.659 261.308 280.017 260.405 280.017Z" fill="#404EED"></path><path d="M176.983 272.639C176.08 272.639 175.214 272.281 174.575 271.643C173.937 271.005 173.578 270.14 173.578 269.237V234.591C173.578 233.689 173.937 232.824 174.575 232.186C175.214 231.548 176.08 231.189 176.983 231.189C177.886 231.189 178.752 231.548 179.39 232.186C180.029 232.824 180.387 233.689 180.387 234.591V269.237C180.387 270.14 180.029 271.005 179.39 271.643C178.752 272.281 177.886 272.639 176.983 272.639Z" fill="#404EED"></path><path d="M205.79 173.699C205.189 173.701 204.599 173.544 204.079 173.245C203.559 172.945 203.127 172.513 202.828 171.993C202.529 171.473 202.373 170.883 202.375 170.284C202.378 169.684 202.539 169.095 202.842 168.578C207.836 160.048 214.664 152.733 222.833 147.163C223.203 146.911 223.619 146.735 224.057 146.644C224.496 146.553 224.948 146.549 225.388 146.632C225.827 146.716 226.247 146.885 226.621 147.13C226.996 147.375 227.318 147.692 227.57 148.062C227.822 148.432 227.999 148.847 228.09 149.285C228.181 149.723 228.185 150.175 228.101 150.614C228.018 151.054 227.848 151.473 227.603 151.847C227.357 152.221 227.04 152.543 226.67 152.795C219.343 157.794 213.218 164.357 208.737 172.008C208.437 172.523 208.007 172.951 207.49 173.248C206.973 173.544 206.386 173.7 205.79 173.699Z" fill="#404EED"></path><path d="M409.549 187.605L519.046 220.909V298.908C519.047 335.154 509.29 370.734 490.796 401.918C472.303 433.102 445.754 458.743 413.932 476.153C413.932 476.153 413.932 476.153 413.931 476.153L409.582 478.531L405.237 476.153L405.237 476.153C373.414 458.743 346.864 433.103 328.369 401.919C309.875 370.735 300.117 335.155 300.117 298.908V220.913L409.549 187.605Z" fill="white" stroke="#404EED" stroke-width="5"></path><g style="mix-blend-mode:multiply" opacity="0.39"><g style="mix-blend-mode:multiply"><path d="M414.084 284.535C420.7 281.797 423.842 274.218 421.101 267.608C418.361 260.998 410.776 257.859 404.159 260.597C397.543 263.335 394.401 270.913 397.142 277.523C399.882 284.133 407.468 287.273 414.084 284.535Z" fill="#494949"></path></g><g style="mix-blend-mode:multiply"><path d="M465.25 275.501C466.895 268.538 462.579 261.561 455.609 259.917C448.639 258.274 441.655 262.586 440.01 269.55C438.365 276.513 442.681 283.491 449.651 285.134C456.621 286.778 463.605 282.465 465.25 275.501Z" fill="#494949"></path></g><g style="mix-blend-mode:multiply"><path d="M370.467 284.538C377.083 281.8 380.225 274.222 377.484 267.612C374.744 261.002 367.158 257.863 360.542 260.601C353.926 263.339 350.784 270.917 353.525 277.527C356.265 284.137 363.85 287.276 370.467 284.538Z" fill="#494949"></path></g><g style="mix-blend-mode:multiply"><path d="M421.786 317.551C422.933 310.489 418.133 303.835 411.064 302.688C403.995 301.542 397.334 306.338 396.187 313.4C395.04 320.462 399.84 327.117 406.909 328.263C413.978 329.41 420.638 324.614 421.786 317.551Z" fill="#494949"></path></g><g style="mix-blend-mode:multiply"><path d="M461.667 324.598C466.731 319.539 466.731 311.336 461.667 306.277C456.603 301.218 448.393 301.218 443.329 306.277C438.265 311.336 438.265 319.539 443.329 324.598C448.393 329.657 456.603 329.657 461.667 324.598Z" fill="#494949"></path></g><g style="mix-blend-mode:multiply"><path d="M377.789 318.369C379.434 311.405 375.118 304.428 368.148 302.785C361.178 301.141 354.194 305.454 352.549 312.417C350.904 319.38 355.221 326.358 362.19 328.001C369.16 329.645 376.144 325.332 377.789 318.369Z" fill="#494949"></path></g><g style="mix-blend-mode:multiply"><path d="M408.647 371.259C415.808 371.259 421.613 365.459 421.613 358.304C421.613 351.15 415.808 345.35 408.647 345.35C401.485 345.35 395.68 351.15 395.68 358.304C395.68 365.459 401.485 371.259 408.647 371.259Z" fill="#494949"></path></g><g style="mix-blend-mode:multiply"><path d="M408.412 414.123C415.574 414.123 421.379 408.322 421.379 401.168C421.379 394.013 415.574 388.213 408.412 388.213C401.251 388.213 395.445 394.013 395.445 401.168C395.445 408.322 401.251 414.123 408.412 414.123Z" fill="#494949"></path></g><g style="mix-blend-mode:multiply"><path d="M452.264 371.259C459.425 371.259 465.231 365.459 465.231 358.304C465.231 351.15 459.425 345.35 452.264 345.35C445.102 345.35 439.297 351.15 439.297 358.304C439.297 365.459 445.102 371.259 452.264 371.259Z" fill="#494949"></path></g><g style="mix-blend-mode:multiply"><path d="M365.037 371.259C372.199 371.259 378.004 365.459 378.004 358.304C378.004 351.15 372.199 345.35 365.037 345.35C357.876 345.35 352.07 351.15 352.07 358.304C352.07 365.459 357.876 371.259 365.037 371.259Z" fill="#494949"></path></g></g><path d="M409.119 280.773C416.281 280.773 422.086 274.973 422.086 267.818C422.086 260.663 416.281 254.863 409.119 254.863C401.958 254.863 396.152 260.663 396.152 267.818C396.152 274.973 401.958 280.773 409.119 280.773Z" fill="white"></path><path d="M452.74 280.773C459.902 280.773 465.707 274.973 465.707 267.818C465.707 260.663 459.902 254.863 452.74 254.863C445.579 254.863 439.773 260.663 439.773 267.818C439.773 274.973 445.579 280.773 452.74 280.773Z" fill="white"></path><path d="M365.506 280.773C372.667 280.773 378.473 274.973 378.473 267.818C378.473 260.663 372.667 254.863 365.506 254.863C358.345 254.863 352.539 260.663 352.539 267.818C352.539 274.973 358.345 280.773 365.506 280.773Z" fill="white"></path><path d="M413.85 322.652C420.466 319.914 423.608 312.335 420.867 305.725C418.127 299.115 410.542 295.976 403.925 298.714C397.309 301.452 394.167 309.03 396.908 315.641C399.648 322.251 407.233 325.39 413.85 322.652Z" fill="white"></path><path d="M465.024 313.611C466.669 306.647 462.352 299.67 455.382 298.027C448.412 296.383 441.428 300.696 439.783 307.659C438.138 314.623 442.455 321.6 449.425 323.243C456.395 324.887 463.379 320.574 465.024 313.611Z" fill="white"></path><path d="M374.444 319.846C379.508 314.787 379.508 306.584 374.444 301.525C369.38 296.466 361.17 296.466 356.107 301.525C351.043 306.584 351.043 314.787 356.106 319.846C361.17 324.905 369.381 324.905 374.444 319.846Z" fill="white"></path><path d="M421.551 355.669C422.699 348.606 417.898 341.952 410.83 340.805C403.761 339.659 397.1 344.455 395.953 351.517C394.805 358.579 399.605 365.234 406.674 366.38C413.743 367.527 420.404 362.731 421.551 355.669Z" fill="white"></path><path d="M408.412 409.369C415.574 409.369 421.379 403.569 421.379 396.414C421.379 389.259 415.574 383.459 408.412 383.459C401.251 383.459 395.445 389.259 395.445 396.414C395.445 403.569 401.251 409.369 408.412 409.369Z" fill="white"></path><path d="M461.429 362.707C466.493 357.648 466.493 349.445 461.429 344.386C456.365 339.327 448.155 339.327 443.091 344.386C438.027 349.446 438.027 357.648 443.091 362.707C448.155 367.766 456.365 367.766 461.429 362.707Z" fill="white"></path><path d="M377.555 356.476C379.2 349.513 374.883 342.535 367.913 340.892C360.943 339.248 353.96 343.561 352.315 350.524C350.67 357.488 354.986 364.465 361.956 366.109C368.926 367.752 375.91 363.439 377.555 356.476Z" fill="white"></path><path d="M213.652 381.352H10.1752C4.71957 381.352 0.296875 385.77 0.296875 391.221V510.443C0.296875 515.893 4.71957 520.312 10.1752 520.312H213.652C219.108 520.312 223.531 515.893 223.531 510.443V391.221C223.531 385.77 219.108 381.352 213.652 381.352Z" fill="#141451"></path><path opacity="0.2" d="M106.477 489.43H24.6289V494.819H106.477V489.43Z" fill="#F1F2F2"></path><path opacity="0.2" d="M61.0733 498.51H24.6289V503.899H61.0733V498.51Z" fill="#F1F2F2"></path><path d="M29.9133 482.845H26.2363C25.6394 482.843 25.0674 482.606 24.6453 482.184C24.2233 481.763 23.9857 481.191 23.9844 480.595V472.762C23.9857 472.165 24.2233 471.594 24.6453 471.172C25.0674 470.75 25.6394 470.513 26.2363 470.512H29.9133C30.5097 470.513 31.0813 470.751 31.5026 471.172C31.9239 471.594 32.1605 472.166 32.1604 472.762V480.595C32.1605 481.191 31.9239 481.762 31.5026 482.184C31.0813 482.606 30.5097 482.843 29.9133 482.845ZM26.2363 471.62C25.9331 471.62 25.6424 471.74 25.4281 471.954C25.2137 472.168 25.0935 472.459 25.0935 472.762V480.595C25.0935 480.898 25.2137 481.188 25.4281 481.402C25.6424 481.616 25.9331 481.737 26.2363 481.737H29.9133C30.2161 481.735 30.5062 481.615 30.7203 481.401C30.9344 481.187 31.0551 480.897 31.0564 480.595V472.762C31.0564 472.612 31.0269 472.463 30.9694 472.325C30.912 472.186 30.8276 472.06 30.7215 471.954C30.6154 471.848 30.4894 471.764 30.3508 471.707C30.2121 471.649 30.0634 471.62 29.9133 471.62H26.2363Z" fill="white"></path><path d="M39.5539 482.845H35.8769C35.28 482.843 34.708 482.606 34.2859 482.184C33.8639 481.763 33.6263 481.191 33.625 480.595V472.762C33.6263 472.165 33.8639 471.594 34.2859 471.172C34.708 470.75 35.28 470.513 35.8769 470.512H39.5539C40.1504 470.513 40.7217 470.751 41.143 471.172C41.5643 471.594 41.8008 472.166 41.8008 472.762V480.595C41.8008 481.191 41.5643 481.762 41.143 482.184C40.7217 482.606 40.1504 482.843 39.5539 482.845ZM35.8769 471.62C35.5737 471.62 35.2831 471.74 35.0687 471.954C34.8544 472.168 34.7338 472.459 34.7338 472.762V480.595C34.7338 480.898 34.8544 481.188 35.0687 481.402C35.2831 481.616 35.5737 481.737 35.8769 481.737H39.5539C39.8562 481.735 40.1457 481.614 40.359 481.4C40.5723 481.186 40.692 480.897 40.692 480.595V472.762C40.692 472.46 40.5723 472.17 40.359 471.956C40.1457 471.742 39.8562 471.621 39.5539 471.62H35.8769Z" fill="white"></path><path d="M49.1898 482.845H45.5175C44.9207 482.843 44.3486 482.606 43.9266 482.184C43.5045 481.763 43.2669 481.191 43.2656 480.595V472.762C43.2669 472.165 43.5045 471.594 43.9266 471.172C44.3486 470.75 44.9207 470.513 45.5175 470.512H49.1898C49.4855 470.512 49.7782 470.57 50.0514 470.683C50.3247 470.796 50.5731 470.962 50.7822 471.171C50.9913 471.38 51.1571 471.628 51.2702 471.901C51.3834 472.174 51.4417 472.466 51.4417 472.762V480.595C51.4417 480.89 51.3834 481.183 51.2702 481.456C51.1571 481.729 50.9913 481.977 50.7822 482.186C50.5731 482.395 50.3247 482.56 50.0514 482.673C49.7782 482.786 49.4855 482.845 49.1898 482.845ZM45.5175 471.62C45.3674 471.62 45.2187 471.649 45.0801 471.707C44.9414 471.764 44.8155 471.848 44.7093 471.954C44.6032 472.06 44.5191 472.186 44.4616 472.325C44.4042 472.463 44.3745 472.612 44.3745 472.762V480.595C44.3745 480.745 44.4042 480.893 44.4616 481.032C44.5191 481.17 44.6032 481.296 44.7093 481.402C44.8155 481.508 44.9414 481.592 45.0801 481.65C45.2187 481.707 45.3674 481.737 45.5175 481.737H49.1898C49.493 481.737 49.7836 481.616 49.998 481.402C50.2123 481.188 50.3326 480.898 50.3326 480.595V472.762C50.3326 472.459 50.2123 472.168 49.998 471.954C49.7836 471.74 49.493 471.62 49.1898 471.62H45.5175Z" fill="white"></path><path d="M58.8302 482.848H55.1581C54.5613 482.847 53.9892 482.61 53.5672 482.188C53.1451 481.766 52.9075 481.195 52.9063 480.599V472.765C52.9056 472.469 52.9632 472.176 53.0761 471.902C53.1889 471.628 53.3548 471.379 53.5639 471.17C53.773 470.96 54.0213 470.793 54.2949 470.679C54.5684 470.565 54.8618 470.506 55.1581 470.506H58.8352C59.4316 470.507 60.0032 470.745 60.4245 471.167C60.8458 471.588 61.0823 472.16 61.0823 472.756V480.589C61.0836 480.885 61.0263 481.179 60.9137 481.453C60.8011 481.727 60.6354 481.976 60.4261 482.186C60.2169 482.396 59.9683 482.563 59.6944 482.676C59.4206 482.79 59.1268 482.848 58.8302 482.848ZM55.1534 471.624C55.0033 471.624 54.8546 471.653 54.7159 471.71C54.5773 471.768 54.4511 471.852 54.345 471.958C54.2388 472.064 54.1547 472.19 54.0973 472.328C54.0398 472.467 54.0103 472.615 54.0103 472.765V480.599C54.0103 480.749 54.0398 480.897 54.0973 481.036C54.1547 481.174 54.2388 481.3 54.345 481.406C54.4511 481.512 54.5773 481.596 54.7159 481.654C54.8546 481.711 55.0033 481.74 55.1534 481.74H58.8302C59.1325 481.739 59.422 481.618 59.6353 481.404C59.8486 481.19 59.9685 480.901 59.9685 480.599V472.765C59.9685 472.463 59.8486 472.174 59.6353 471.96C59.422 471.746 59.1325 471.625 58.8302 471.624H55.1534Z" fill="white"></path><path d="M76.4203 482.845H72.7482C72.1514 482.843 71.5793 482.606 71.1573 482.184C70.7352 481.763 70.4974 481.191 70.4961 480.595V472.762C70.4974 472.165 70.7352 471.594 71.1573 471.172C71.5793 470.75 72.1514 470.513 72.7482 470.512H76.4203C77.0171 470.513 77.5892 470.75 78.0112 471.172C78.4333 471.594 78.6709 472.165 78.6722 472.762V480.595C78.6709 481.191 78.4333 481.763 78.0112 482.184C77.5892 482.606 77.0171 482.843 76.4203 482.845ZM72.7482 471.62C72.4451 471.62 72.1544 471.74 71.94 471.954C71.7257 472.168 71.6052 472.459 71.6052 472.762V480.595C71.6052 480.898 71.7257 481.188 71.94 481.402C72.1544 481.616 72.4451 481.737 72.7482 481.737H76.4203C76.7234 481.737 77.0141 481.616 77.2285 481.402C77.4428 481.188 77.5633 480.898 77.5633 480.595V472.762C77.5633 472.459 77.4428 472.168 77.2285 471.954C77.0141 471.74 76.7234 471.62 76.4203 471.62H72.7482Z" fill="white"></path><path d="M86.0579 482.848H82.3956C81.7992 482.847 81.2276 482.61 80.8063 482.188C80.385 481.766 80.1485 481.194 80.1485 480.599V472.765C80.1472 472.47 80.2043 472.176 80.3166 471.903C80.4289 471.629 80.5943 471.38 80.803 471.17C81.0117 470.96 81.2597 470.793 81.533 470.679C81.8063 470.565 82.0995 470.506 82.3956 470.506H86.0727C86.6695 470.507 87.2416 470.745 87.6636 471.166C88.0856 471.588 88.3232 472.159 88.3245 472.756V480.589C88.3252 480.886 88.267 481.181 88.1533 481.455C88.0396 481.73 87.8726 481.98 87.6619 482.19C87.4513 482.4 87.201 482.566 86.9257 482.679C86.6505 482.792 86.3555 482.85 86.0579 482.848ZM82.3811 471.624C82.0788 471.625 81.7893 471.746 81.576 471.96C81.3627 472.174 81.2428 472.463 81.2428 472.765V480.599C81.2428 480.901 81.3627 481.19 81.576 481.404C81.7893 481.618 82.0788 481.739 82.3811 481.74H86.0579C86.3611 481.74 86.652 481.62 86.8663 481.406C87.0807 481.192 87.201 480.901 87.201 480.599V472.765C87.201 472.463 87.0807 472.172 86.8663 471.958C86.652 471.744 86.3611 471.624 86.0579 471.624H82.3811Z" fill="white"></path><path d="M95.6976 482.845H92.0253C91.4281 482.845 90.8553 482.608 90.4329 482.186C90.0106 481.764 89.7734 481.191 89.7734 480.595V472.762C89.7734 472.165 90.0106 471.593 90.4329 471.171C90.8553 470.749 91.4281 470.512 92.0253 470.512H95.6976C96.2945 470.513 96.8665 470.75 97.2886 471.172C97.7106 471.594 97.9482 472.165 97.9495 472.762V480.595C97.9482 481.191 97.7106 481.763 97.2886 482.184C96.8665 482.606 96.2945 482.843 95.6976 482.845ZM92.0253 471.62C91.8752 471.62 91.7268 471.649 91.5881 471.707C91.4494 471.764 91.3233 471.848 91.2171 471.954C91.111 472.06 91.0269 472.186 90.9694 472.325C90.912 472.463 90.8825 472.612 90.8825 472.762V480.595C90.8825 480.745 90.912 480.893 90.9694 481.032C91.0269 481.17 91.111 481.296 91.2171 481.402C91.3233 481.508 91.4494 481.592 91.5881 481.65C91.7268 481.707 91.8752 481.737 92.0253 481.737H95.6976C96.0008 481.737 96.2915 481.616 96.5058 481.402C96.7202 481.188 96.8407 480.898 96.8407 480.595V472.762C96.8407 472.459 96.7202 472.168 96.5058 471.954C96.2915 471.74 96.0008 471.62 95.6976 471.62H92.0253Z" fill="white"></path><path d="M105.342 482.845H101.665C101.068 482.843 100.497 482.606 100.076 482.184C99.6545 481.762 99.418 481.191 99.418 480.595V472.762C99.418 472.166 99.6545 471.594 100.076 471.172C100.497 470.751 101.068 470.513 101.665 470.512H105.342C105.939 470.513 106.511 470.75 106.933 471.172C107.355 471.594 107.593 472.165 107.594 472.762V480.595C107.593 481.191 107.355 481.763 106.933 482.184C106.511 482.606 105.939 482.843 105.342 482.845ZM101.665 471.62C101.362 471.62 101.071 471.74 100.857 471.954C100.642 472.168 100.522 472.459 100.522 472.762V480.595C100.523 480.897 100.644 481.187 100.858 481.401C101.072 481.615 101.362 481.735 101.665 481.737H105.342C105.645 481.737 105.936 481.616 106.15 481.402C106.364 481.188 106.485 480.898 106.485 480.595V472.762C106.485 472.459 106.364 472.168 106.15 471.954C105.936 471.74 105.645 471.62 105.342 471.62H101.665Z" fill="white"></path><path d="M122.932 482.845H119.255C118.658 482.843 118.087 482.606 117.666 482.184C117.244 481.762 117.008 481.191 117.008 480.595V472.762C117.008 472.166 117.244 471.594 117.666 471.172C118.087 470.751 118.658 470.513 119.255 470.512H122.932C123.529 470.513 124.101 470.75 124.523 471.172C124.945 471.594 125.183 472.165 125.184 472.762V480.595C125.183 481.191 124.945 481.763 124.523 482.184C124.101 482.606 123.529 482.843 122.932 482.845ZM119.255 471.62C118.952 471.62 118.661 471.74 118.447 471.954C118.232 472.168 118.112 472.459 118.112 472.762V480.595C118.113 480.897 118.234 481.187 118.448 481.401C118.662 481.615 118.952 481.735 119.255 481.737H122.932C123.235 481.737 123.526 481.616 123.74 481.402C123.954 481.188 124.075 480.898 124.075 480.595V472.762C124.075 472.459 123.954 472.168 123.74 471.954C123.526 471.74 123.235 471.62 122.932 471.62H119.255Z" fill="white"></path><path d="M132.573 482.845H128.896C128.299 482.843 127.728 482.606 127.306 482.184C126.885 481.762 126.648 481.191 126.648 480.595V472.762C126.648 472.166 126.885 471.594 127.306 471.172C127.728 470.751 128.299 470.513 128.896 470.512H132.573C133.169 470.513 133.742 470.75 134.164 471.172C134.586 471.594 134.823 472.165 134.825 472.762V480.595C134.823 481.191 134.586 481.763 134.164 482.184C133.742 482.606 133.169 482.843 132.573 482.845ZM128.896 471.62C128.592 471.62 128.302 471.74 128.087 471.954C127.873 472.168 127.753 472.459 127.753 472.762V480.595C127.754 480.897 127.875 481.187 128.089 481.401C128.303 481.615 128.593 481.735 128.896 481.737H132.573C132.876 481.737 133.166 481.616 133.381 481.402C133.595 481.188 133.715 480.898 133.715 480.595V472.762C133.715 472.459 133.595 472.168 133.381 471.954C133.166 471.74 132.876 471.62 132.573 471.62H128.896Z" fill="white"></path><path d="M142.226 482.845H138.549C137.952 482.843 137.38 482.606 136.958 482.184C136.536 481.763 136.298 481.191 136.297 480.595V472.762C136.298 472.165 136.536 471.594 136.958 471.172C137.38 470.75 137.952 470.513 138.549 470.512H142.226C142.823 470.513 143.395 470.75 143.817 471.172C144.239 471.594 144.476 472.165 144.478 472.762V480.595C144.476 481.191 144.239 481.763 143.817 482.184C143.395 482.606 142.823 482.843 142.226 482.845ZM138.549 471.62C138.246 471.62 137.955 471.74 137.741 471.954C137.526 472.168 137.406 472.459 137.406 472.762V480.595C137.407 480.897 137.528 481.187 137.742 481.401C137.956 481.615 138.246 481.735 138.549 481.737H142.226C142.529 481.735 142.818 481.615 143.033 481.401C143.247 481.187 143.368 480.897 143.369 480.595V472.762C143.369 472.459 143.248 472.168 143.034 471.954C142.82 471.74 142.529 471.62 142.226 471.62H138.549Z" fill="white"></path><path d="M151.855 482.845H148.178C147.581 482.843 147.009 482.606 146.587 482.184C146.165 481.763 145.927 481.191 145.926 480.595V472.762C145.927 472.165 146.165 471.594 146.587 471.172C147.009 470.75 147.581 470.513 148.178 470.512H151.855C152.452 470.513 153.024 470.75 153.446 471.172C153.868 471.594 154.106 472.165 154.107 472.762V480.595C154.106 481.191 153.868 481.763 153.446 482.184C153.024 482.606 152.452 482.843 151.855 482.845ZM148.178 471.62C147.875 471.62 147.584 471.74 147.369 471.954C147.155 472.168 147.035 472.459 147.035 472.762V480.595C147.035 480.898 147.155 481.188 147.369 481.402C147.584 481.616 147.875 481.737 148.178 481.737H151.855C152.157 481.735 152.448 481.615 152.662 481.401C152.876 481.187 152.996 480.897 152.998 480.595V472.762C152.998 472.459 152.877 472.168 152.663 471.954C152.449 471.74 152.158 471.62 151.855 471.62H148.178Z" fill="white"></path><path d="M169.46 482.845H165.783C165.186 482.843 164.614 482.606 164.192 482.184C163.77 481.763 163.533 481.191 163.531 480.595V472.762C163.533 472.165 163.77 471.594 164.192 471.172C164.614 470.75 165.186 470.513 165.783 470.512H169.46C170.057 470.513 170.629 470.75 171.051 471.172C171.473 471.594 171.711 472.165 171.712 472.762V480.595C171.711 481.191 171.473 481.763 171.051 482.184C170.629 482.606 170.057 482.843 169.46 482.845ZM165.783 471.62C165.48 471.62 165.189 471.74 164.975 471.954C164.761 472.168 164.64 472.459 164.64 472.762V480.595C164.64 480.898 164.761 481.188 164.975 481.402C165.189 481.616 165.48 481.737 165.783 481.737H169.46C169.763 481.735 170.053 481.615 170.267 481.401C170.481 481.187 170.602 480.897 170.603 480.595V472.762C170.603 472.459 170.483 472.168 170.268 471.954C170.054 471.74 169.763 471.62 169.46 471.62H165.783Z" fill="white"></path><path d="M179.085 482.845H175.408C174.811 482.843 174.239 482.606 173.817 482.184C173.395 481.763 173.158 481.191 173.156 480.595V472.762C173.158 472.165 173.395 471.594 173.817 471.172C174.239 470.75 174.811 470.513 175.408 470.512H179.085C179.682 470.513 180.253 470.751 180.674 471.172C181.096 471.594 181.332 472.166 181.332 472.762V480.595C181.332 481.191 181.096 481.762 180.674 482.184C180.253 482.606 179.682 482.843 179.085 482.845ZM175.408 471.62C175.105 471.62 174.814 471.74 174.6 471.954C174.386 472.168 174.265 472.459 174.265 472.762V480.595C174.265 480.898 174.386 481.188 174.6 481.402C174.814 481.616 175.105 481.737 175.408 481.737H179.085C179.388 481.735 179.678 481.615 179.892 481.401C180.106 481.187 180.227 480.897 180.228 480.595V472.762C180.228 472.459 180.108 472.168 179.893 471.954C179.679 471.74 179.388 471.62 179.085 471.62H175.408Z" fill="white"></path><path d="M188.726 482.845H185.049C184.452 482.843 183.88 482.606 183.458 482.184C183.036 481.763 182.798 481.191 182.797 480.595V472.762C182.798 472.165 183.036 471.594 183.458 471.172C183.88 470.75 184.452 470.513 185.049 470.512H188.726C189.322 470.513 189.894 470.751 190.315 471.172C190.736 471.594 190.973 472.166 190.973 472.762V480.595C190.973 481.191 190.736 481.762 190.315 482.184C189.894 482.606 189.322 482.843 188.726 482.845ZM185.049 471.62C184.746 471.62 184.455 471.74 184.241 471.954C184.026 472.168 183.906 472.459 183.906 472.762V480.595C183.906 480.898 184.026 481.188 184.241 481.402C184.455 481.616 184.746 481.737 185.049 481.737H188.726C189.028 481.735 189.318 481.614 189.531 481.4C189.744 481.186 189.864 480.897 189.864 480.595V472.762C189.864 472.46 189.744 472.17 189.531 471.956C189.318 471.742 189.028 471.621 188.726 471.62H185.049Z" fill="white"></path><path d="M198.366 482.845H194.689C194.093 482.843 193.52 482.606 193.098 482.184C192.676 481.763 192.439 481.191 192.438 480.595V472.762C192.439 472.165 192.676 471.594 193.098 471.172C193.52 470.75 194.093 470.513 194.689 470.512H198.366C198.963 470.513 199.534 470.751 199.955 471.172C200.377 471.594 200.613 472.166 200.613 472.762V480.595C200.613 481.191 200.377 481.762 199.955 482.184C199.534 482.606 198.963 482.843 198.366 482.845ZM194.689 471.62C194.386 471.62 194.096 471.74 193.881 471.954C193.667 472.168 193.546 472.459 193.546 472.762V480.595C193.546 480.898 193.667 481.188 193.881 481.402C194.096 481.616 194.386 481.737 194.689 481.737H198.366C198.669 481.735 198.958 481.614 199.172 481.4C199.385 481.186 199.504 480.897 199.504 480.595V472.762C199.504 472.46 199.385 472.17 199.172 471.956C198.958 471.742 198.669 471.621 198.366 471.62H194.689Z" fill="white"></path><path d="M29.5989 445.942C29.5975 444.717 29.9016 443.511 30.484 442.434H23.8984V449.455H30.484C29.9022 448.376 29.5981 447.168 29.5989 445.942Z" fill="white"></path><path d="M50.2493 441.583V436.399C50.2493 435.44 49.868 434.52 49.1893 433.842C48.5107 433.164 47.5904 432.783 46.6306 432.783H45.332V441.583H50.2493Z" fill="white"></path><path d="M29.0491 432.783H27.5171C26.5573 432.783 25.637 433.164 24.9584 433.842C24.2797 434.52 23.8984 435.44 23.8984 436.399V441.583H29.0491V432.783Z" fill="white"></path><path d="M23.8984 450.307V455.487C23.8978 455.962 23.9909 456.432 24.1725 456.872C24.3541 457.311 24.6206 457.71 24.9567 458.046C25.2928 458.382 25.6917 458.649 26.1311 458.831C26.5704 459.013 27.0415 459.107 27.5171 459.107H29.0444V450.307H23.8984Z" fill="white"></path><path d="M31.026 441.583C31.7142 440.622 32.6219 439.839 33.6738 439.299C34.7257 438.759 35.8914 438.477 37.0742 438.477C38.2569 438.477 39.4227 438.759 40.4746 439.299C41.5264 439.839 42.4341 440.622 43.1223 441.583H44.4357V432.783H29.9414V441.583H31.026Z" fill="white"></path><path d="M43.1213 450.307C42.4317 451.266 41.5235 452.047 40.4718 452.586C39.4201 453.125 38.2551 453.406 37.0731 453.406C35.8911 453.406 34.7261 453.125 33.6744 452.586C32.6227 452.047 31.7145 451.266 31.0249 450.307H29.9453V459.107H44.4588V450.307H43.1213Z" fill="white"></path><path d="M45.332 459.107H46.6306C47.1062 459.107 47.5773 459.013 48.0166 458.831C48.456 458.649 48.8552 458.382 49.1912 458.046C49.5273 457.71 49.7936 457.311 49.9752 456.872C50.1568 456.432 50.2499 455.962 50.2493 455.487V450.307H45.332V459.107Z" fill="white"></path><path d="M43.6641 442.434C44.2418 443.514 44.5442 444.72 44.5442 445.944C44.5442 447.169 44.2418 448.375 43.6641 449.455H50.2497V442.434H43.6641Z" fill="white"></path><path d="M42.6724 442.434H31.4857C30.8214 443.484 30.4688 444.702 30.4688 445.944C30.4688 447.187 30.8214 448.405 31.4857 449.455H42.6724C43.3367 448.405 43.6891 447.187 43.6891 445.944C43.6891 444.702 43.3367 443.484 42.6724 442.434Z" fill="white"></path><path d="M37.0705 439.328C36.1305 439.329 35.2017 439.531 34.3461 439.92C33.4904 440.308 32.7277 440.876 32.1094 441.583H42.0267C41.4095 440.875 40.648 440.308 39.7931 439.919C38.9383 439.53 38.0099 439.329 37.0705 439.328Z" fill="white"></path><path d="M37.0705 452.556C38.0102 452.556 38.9389 452.356 39.7946 451.968C40.6502 451.58 41.4129 451.013 42.0315 450.307H32.1094C32.7286 451.013 33.4915 451.578 34.347 451.966C35.2025 452.354 36.131 452.556 37.0705 452.556Z" fill="white"></path></svg>